<svg id="Layer_1" enable-background="new 0 0 128 128" viewBox="0 0 128 128" xmlns="http://www.w3.org/2000/svg" xmlns:xlink="http://www.w3.org/1999/xlink"><linearGradient id="SVGID_1_" gradientTransform="matrix(1 0 0 -1 0 130)" gradientUnits="userSpaceOnUse" x1="97.088" x2="30.915" y1="38.717" y2="104.889"><stop offset="0" stop-color="#4a7aff"/><stop offset="1" stop-color="#ff36c1"/></linearGradient><path d="m94.3 42.8c0-5.3-4.2-9.5-9.5-9.5-3 0-5.8 1.4-7.6 3.7l-7.7 4.5c-3.4 2.1-7.8 2.1-11.2 0l-7.5-4.5c-3.2-4.2-9.2-5-13.3-1.8-3.5 2.7-4.7 7.4-3 11.4.4.9 1.4 1.3 2.3.9s1.3-1.4.9-2.3c-1.4-3.1.2-5.8 1.5-6.9 1.1-1 4.6-3.1 8.3.1l-10.9 15.4c-.2.3-.3.7-.3 1.1 0 .5.8 12.7 10.8 21 3.1 2.6 4 7.5 4.2 11.1.3 4.7 2.8 8.8 6.5 10.7 3.9 2 8.6 2 12.5 0 3.7-1.8 6.2-5.9 6.5-10.7.2-3.6 1.1-8.5 4.2-11.1.7-.6.8-1.7.2-2.5-.6-.7-1.7-.8-2.4-.2-3.2 2.7-5.1 7.4-5.5 13.6-.2 3.4-2 6.5-4.5 7.7-3 1.5-6.5 1.5-9.4 0-2.6-1.3-4.3-4.3-4.5-7.7-.4-6.2-2.2-10.9-5.5-13.6-7.6-6.3-9.2-15.5-9.5-17.9l10.3-14.6 6.5 3.8c4.5 2.7 10.2 2.7 14.7 0l6.5-3.8 7.5 10.6 2.9 4c-.4 3.2-1.3 6.3-2.8 9.3-.4.9 0 1.9.9 2.3s1.9 0 2.3-.8c1.7-3.5 2.8-7.3 3.2-11.2 0-.4-.1-.8-.3-1.1l-2-2.8c2.9-1.6 4.7-4.8 4.7-8.2zm-6.9 5.4-6.8-9.7c2.4-2.3 6.2-2.3 8.5.1 2.3 2.3 2.7 7.1-1.7 9.6zm-1.8 22.8c-.2.2-.3.5-.5.7-.6.8-1.7.9-2.5.3s-.9-1.7-.3-2.5c.2-.2.3-.4.5-.6.6-.8 1.7-.9 2.5-.3.7.6.9 1.6.3 2.4zm-6.5-18c.9-.4 1.3-1.4.9-2.3s-1.4-1.3-2.3-.9c0 0 0 0-.1 0 0 0-8.4 3.7-9 4.4-.3.3-2.7 3 .6 8.2.5.6.7 1.4.5 2.2-.4.9-2 1.4-2.7 1.6-1.3.3-4.3.3-5.9 0-.8-.1-2.3-.7-2.7-1.6-.2-.8 0-1.5.5-2.2 3.2-5.2.8-7.9.6-8.2-.4-.5-9-4.4-9-4.4-.9-.4-1.9 0-2.3.9s0 1.9.8 2.3l8 3.8c.1.5.3 1.7-1 3.8-1.5 2.4-1.2 4.3-.7 5.4s1.3 1.9 2.4 2.5c-.1.3-.1.7-.1 1.1 0 3 2 5.6 4.9 6.4v1.9c-2.8.4-4.7 1.8-4.7 3.7 0 1 .8 1.8 1.7 1.8.8 0 1.6-.6 1.7-1.4 1.9-.9 4.1-.9 5.9 0 .2.9 1.1 1.6 2.1 1.4.8-.2 1.4-.9 1.4-1.7 0-1.9-1.9-3.3-4.7-3.7v-1.9c2.9-.8 4.9-3.4 4.9-6.4 0-.4 0-.7-.1-1.1 1-.6 1.9-1.5 2.4-2.5.5-1.1.8-3-.7-5.4-1.3-2.2-1.2-3.4-1-3.8zm-15.1 19.7c-1.7 0-3.1-1.3-3.1-3 .2 0 .5.1.7.1 1.6.3 3.2.3 4.8 0 .2 0 .5-.1.7-.1 0 1.7-1.4 3-3.1 3zm-40-37.2c.2-.3.5-.6.7-.8.6-.7 1.7-.8 2.5-.1.7.6.8 1.7.1 2.5-.2.2-.4.5-.6.7-.6.7-1.7.9-2.5.3-.7-.8-.8-1.9-.2-2.6zm86.1 18.5c-.6.4-1.4.4-1.9-.1-.4-.3-1.1-.7-1.9-1.2 2.1 4.4 4 11.6 2.1 21.3-.2.9-1.1 1.6-2.1 1.4-.4-.1-.8-.3-1.1-.7-1-1.3-2.3-3-3.6-4.5.5 8.7-2.3 17.4-7.7 24.2-.6.8-1.7.9-2.5.3s-.9-1.7-.3-2.5c5.8-7.4 8.1-16.9 6.4-26.2-.2-.9.3-1.9 1.3-2.1.4-.1.9 0 1.2.2 1.6.8 3.7 3.2 5.4 5.2 1.1-12.7-5.1-19.4-5.1-19.4-.7-.7-.6-1.8.1-2.5.4-.4 1-.6 1.6-.4 1.6.4 3.2 1.1 4.6 1.9-2.1-8.2-6.3-13.8-12.6-16.9-3.2-1.6-6.7-2.4-10.3-2.3-1 .1-1.8-.7-1.9-1.6 0-1.3 1.6-5.1 3-7.1-12.6 1.4-19.8 6.8-19.8 6.9-.6.5-1.5.5-2.1 0-.1-.1-7.3-5.5-19.8-6.9 1.3 2 2.3 4.3 3 6.7.2.8-.5 2.1-1.8 2.1-4.5 0-8.9 1.2-12.6 3.7-.8.5-1.9.3-2.4-.5s-.3-1.9.5-2.4c3.7-2.4 7.9-3.9 12.3-4.2-1-2.2-2.3-4.3-3.7-6.3-.6-.8-.4-1.9.4-2.4.3-.2.7-.4 1.1-.3 13 .6 21.4 5.3 24.3 7.1 2.9-1.9 11.3-6.6 24.3-7.1 1 0 1.8.7 1.8 1.7 0 .4-.1.8-.3 1.1-1.4 2-2.7 4.1-3.7 6.3 6.1.5 21.3 4.1 24.8 26.1-.1.3-.4 1-1 1.4zm-17.8 30.5c-.1.3-6.4 26.4-28.3 26.4-15.4 0-23.1-12.9-26.3-20.6-.2 1.3-.4 2.6-.5 3.3-.1 1-1 1.6-1.9 1.5-.5-.1-.9-.3-1.2-.6-6.5-8.2-9.1-18.9-7.1-29.2.2-.9 1.2-1.5 2.1-1.3s1.5 1.2 1.3 2.1c-1.4 7.8 0 15.8 4 22.7.3-1.8.8-3.6 1.4-5.3.4-.9 1.4-1.3 2.3-.9.5.2.9.7 1 1.2.1.2 5.8 23.7 24.9 23.7s24.9-23.5 24.9-23.8c.2-.9 1.2-1.5 2.1-1.3 1 .3 1.5 1.2 1.3 2.1zm-69.2-11.2c.2.9-.4 1.9-1.4 2.1-.1 0-.2 0-.3 0-.8 0-1.6-.6-1.7-1.4-1.9-9.7 0-16.9 2.1-21.3-.8.5-1.5.9-1.9 1.2-.8.6-1.9.4-2.4-.4-.3-.4-.4-.8-.3-1.3.6-4 1.8-7.8 3.5-11.4.4-.9 1.5-1.2 2.3-.8.9.4 1.2 1.5.8 2.3v.1c-1 2.1-1.8 4.3-2.4 6.5 1.4-.8 3-1.5 4.6-1.9.9-.2 1.9.4 2.1 1.3.1.6 0 1.2-.4 1.6-.4.3-7.6 8.3-4.6 23.4z" fill="url(#SVGID_1_)"/></svg>